<?xml version="1.0" encoding="UTF-8"?>
<svg id="_Слой_1" data-name="Слой 1" xmlns="http://www.w3.org/2000/svg" viewBox="0 0 50.57 50.57">
  <defs>
    <style>
      .cls-1 {
        fill: #78a2cc;
      }

      .cls-2 {
        fill: #e7e7e7;
      }

      .cls-3 {
        opacity: .4;
      }

      .cls-3, .cls-4 {
        fill: #aecae1;
      }

      .cls-5 {
        fill: #d3d3d3;
      }

      .cls-6 {
        fill: #5f8faf;
      }
    </style>
  </defs>
  <g>
    <path class="cls-4" d="M50.57,6.1c0-3.37-2.73-6.1-6.1-6.1H6.1C2.73,0,0,2.73,0,6.1V40.12H50.57V6.1Z"/>
    <g>
      <rect class="cls-5" x="23.24" y="30.96" width="4.09" height="3.2"/>
      <rect class="cls-1" x="21.04" y="34.17" width="8.38" height="2.93"/>
      <rect class="cls-2" x="0" y="19.53" width="50.57" height="3.35"/>
      <path class="cls-2" d="M50.57,27.06c-18.2,.63-25.29,5.45-25.29,5.45C25.29,32.51,18.2,27.69,0,27.06v-3.45H50.57v3.45Z"/>
      <g>
        <rect class="cls-2" x="36.2" y="15.69" width=".63" height="3.84"/>
        <rect class="cls-2" x="35.76" y="15.42" width="1.52" height="1.49" rx=".75" ry=".75" transform="translate(52.68 -20.35) rotate(90)"/>
      </g>
      <g>
        <rect class="cls-2" x="47.5" y="15.69" width=".63" height="3.84"/>
        <rect class="cls-2" x="47.06" y="15.42" width="1.52" height="1.49" rx=".75" ry=".75" transform="translate(63.98 -31.66) rotate(90)"/>
      </g>
      <g>
        <rect class="cls-2" x="25.07" y="15.69" width=".63" height="3.84"/>
        <rect class="cls-2" x="24.62" y="15.42" width="1.52" height="1.49" rx=".75" ry=".75" transform="translate(41.54 -9.22) rotate(90)"/>
      </g>
      <g>
        <rect class="cls-2" x="13.93" y="15.69" width=".63" height="3.84"/>
        <rect class="cls-2" x="13.49" y="15.42" width="1.52" height="1.49" rx=".75" ry=".75" transform="translate(30.4 1.92) rotate(90)"/>
      </g>
      <g>
        <rect class="cls-2" x="2.79" y="15.69" width=".63" height="3.84"/>
        <rect class="cls-2" x="2.35" y="15.42" width="1.52" height="1.49" rx=".75" ry=".75" transform="translate(19.27 13.06) rotate(90)"/>
      </g>
      <rect class="cls-1" x="0" y="21.77" width="50.57" height="2.92"/>
    </g>
    <path class="cls-6" d="M6.1,50.57H44.48c3.37,0,6.1-3.52,6.1-7.86v-5.62H0v5.62C0,47.05,2.73,50.57,6.1,50.57Z"/>
    <rect class="cls-3" x="6.65" y="39.64" width="37.01" height=".89" rx=".45" ry=".45" transform="translate(50.32 80.17) rotate(-180)"/>
    <rect class="cls-3" x="11.53" y="41.35" width="22.3" height="1.02" rx=".51" ry=".51"/>
    <rect class="cls-3" x="17.42" y="43.13" width="24.58" height=".8" rx=".4" ry=".4"/>
    <rect class="cls-3" x="11.61" y="44.76" width="21.4" height=".96" rx=".48" ry=".48"/>
    <rect class="cls-3" x="25.22" y="46.57" width="8.66" height=".8" rx=".4" ry=".4"/>
  </g>
  <rect class="cls-5" x=".06" y="20.78" width="50.51" height=".98"/>
</svg>