<?xml version="1.0" encoding="UTF-8"?>
<svg id="_Слой_1" data-name="Слой 1" xmlns="http://www.w3.org/2000/svg" viewBox="0 0 50.57 50.57">
  <defs>
    <style>
      .cls-1 {
        fill: #78a2cc;
      }

      .cls-2 {
        fill: #e7e7e7;
      }

      .cls-3 {
        opacity: .4;
      }

      .cls-3, .cls-4 {
        fill: #aecae1;
      }

      .cls-5 {
        fill: #d3d3d3;
      }

      .cls-6 {
        fill: #5f8faf;
      }
    </style>
  </defs>
  <g>
    <path class="cls-4" d="M50.57,6.1C50.57,2.73,47.84,0,44.48,0H6.1C2.73,0,0,2.73,0,6.1V40.12H50.57V6.1Z"/>
    <path class="cls-6" d="M6.1,50.57H44.48c3.37,0,6.1-3.52,6.1-7.86v-5.62H0v5.62C0,47.05,2.73,50.57,6.1,50.57Z"/>
    <rect class="cls-3" x="6.65" y="39.64" width="37.01" height=".89" rx=".45" ry=".45" transform="translate(50.32 80.17) rotate(-180)"/>
    <rect class="cls-3" x="11.53" y="41.35" width="22.3" height="1.02" rx=".51" ry=".51"/>
    <rect class="cls-3" x="17.42" y="43.13" width="24.58" height=".8" rx=".4" ry=".4"/>
    <rect class="cls-3" x="11.61" y="44.76" width="21.4" height=".96" rx=".48" ry=".48"/>
    <rect class="cls-3" x="25.22" y="46.57" width="8.66" height=".8" rx=".4" ry=".4"/>
  </g>
  <g>
    <path class="cls-1" d="M30.82,23.92h19.75v4.96c-12.22,.07-17.5,6.28-17.5,6.28l-2.25-11.24Z"/>
    <path class="cls-4" d="M30.82,25.89h19.75v.66c-12.22,.07-17.9,6.62-17.9,6.62l-1.85-7.29Z"/>
    <rect class="cls-1" x="34.13" y="25.4" width="1.71" height="6.94"/>
    <rect class="cls-1" x="36.87" y="25.4" width="1.71" height="5.54"/>
    <rect class="cls-1" x="39.47" y="25.4" width="1.71" height="4.47"/>
    <rect class="cls-1" x="42" y="25.4" width="1.71" height="3.71"/>
    <rect class="cls-1" x="44.57" y="25.4" width="1.71" height="3.71"/>
    <rect class="cls-1" x="47.18" y="25.4" width="1.71" height="3.24"/>
    <rect class="cls-1" x="49.71" y="25.4" width=".86" height="3.24"/>
    <path class="cls-1" d="M19.55,23.92H0v4.96c12.1,.07,17.32,6.28,17.32,6.28l2.23-11.24Z"/>
    <path class="cls-4" d="M19.55,25.89H0v.66c12.1,.07,17.73,6.62,17.73,6.62l1.83-7.29Z"/>
    <rect class="cls-1" x="14.53" y="25.4" width="1.71" height="6.94" transform="translate(30.77 57.73) rotate(180)"/>
    <rect class="cls-1" x="11.8" y="25.4" width="1.71" height="5.54" transform="translate(25.31 56.33) rotate(180)"/>
    <rect class="cls-1" x="9.19" y="25.4" width="1.71" height="4.47" transform="translate(20.1 55.26) rotate(180)"/>
    <rect class="cls-1" x="6.66" y="25.4" width="1.71" height="3.71" transform="translate(15.03 54.5) rotate(180)"/>
    <rect class="cls-1" x="4.09" y="25.4" width="1.71" height="3.71" transform="translate(9.89 54.5) rotate(180)"/>
    <rect class="cls-1" x="1.48" y="24.8" width="1.71" height="2.32" transform="translate(4.68 51.91) rotate(180)"/>
    <rect class="cls-1" y="24.8" width=".66" height="2.32" transform="translate(.66 51.91) rotate(180)"/>
    <g>
      <rect class="cls-1" y="21.74" width="50.57" height=".31"/>
      <g>
        <rect class="cls-1" x="1.22" y="21.82" width=".55" height="2.17"/>
        <rect class="cls-1" x="3.25" y="21.82" width=".55" height="2.17"/>
        <rect class="cls-1" x="5.28" y="21.82" width=".55" height="2.17"/>
        <rect class="cls-1" x="7.3" y="21.82" width=".55" height="2.17"/>
        <rect class="cls-1" x="9.33" y="21.82" width=".55" height="2.17"/>
        <rect class="cls-1" x="11.36" y="21.82" width=".55" height="2.17"/>
        <rect class="cls-1" x="13.39" y="21.82" width=".55" height="2.17"/>
        <rect class="cls-1" x="15.41" y="21.82" width=".55" height="2.17"/>
        <rect class="cls-1" x="17.44" y="21.82" width=".55" height="2.17"/>
      </g>
      <g>
        <rect class="cls-1" x="19.53" y="21.82" width=".55" height="2.17"/>
        <rect class="cls-1" x="21.56" y="21.82" width=".55" height="2.17"/>
        <rect class="cls-1" x="23.59" y="21.82" width=".55" height="2.17"/>
        <rect class="cls-1" x="25.61" y="21.82" width=".55" height="2.17"/>
        <rect class="cls-1" x="27.64" y="21.82" width=".55" height="2.17"/>
        <rect class="cls-1" x="29.67" y="21.82" width=".55" height="2.17"/>
        <rect class="cls-1" x="31.7" y="21.82" width=".55" height="2.17"/>
        <rect class="cls-1" x="33.72" y="21.82" width=".55" height="2.17"/>
        <rect class="cls-1" x="35.75" y="21.82" width=".55" height="2.17"/>
      </g>
      <g>
        <rect class="cls-1" x="37.77" y="21.82" width=".55" height="2.17"/>
        <rect class="cls-1" x="39.8" y="21.82" width=".55" height="2.17"/>
        <rect class="cls-1" x="41.83" y="21.82" width=".55" height="2.17"/>
        <rect class="cls-1" x="43.85" y="21.82" width=".55" height="2.17"/>
        <rect class="cls-1" x="45.88" y="21.82" width=".55" height="2.17"/>
        <rect class="cls-1" x="47.91" y="21.82" width=".55" height="2.17"/>
        <rect class="cls-1" x="49.93" y="21.82" width=".55" height="2.17"/>
      </g>
    </g>
    <g>
      <polygon class="cls-2" points="17.33 37.09 33.24 37.09 33.06 23.7 17.33 23.7 17.33 37.09"/>
      <path class="cls-5" d="M31.67,21.74h-12.96c-.73,0-1.34,.43-1.37,.98v.98h15.72l-.02-1c-.05-.54-.65-.97-1.37-.97Z"/>
      <rect class="cls-5" x="18.94" y="25.21" width="3.02" height="1.09"/>
      <rect class="cls-5" x="22.18" y="25.21" width="3.02" height="1.09"/>
      <rect class="cls-5" x="20.53" y="26.43" width="3.02" height="1.09"/>
      <rect class="cls-5" x="25.16" y="31.77" width="3.02" height="1.09"/>
      <rect class="cls-5" x="28.4" y="31.77" width="3.02" height="1.09"/>
      <rect class="cls-5" x="26.67" y="30.44" width="3.02" height="1.09"/>
    </g>
    <g>
      <polygon class="cls-1" points="46.86 17.86 47.49 18.71 47.49 23.92 46.86 23.92 46.86 17.86"/>
      <rect class="cls-1" x="46.51" y="17.53" width="1.34" height="1.49" rx=".64" ry=".64" transform="translate(65.45 -28.9) rotate(90)"/>
    </g>
    <g>
      <polygon class="cls-1" points="36.68 17.86 37.31 18.71 37.31 23.92 36.68 23.92 36.68 17.86"/>
      <rect class="cls-1" x="36.32" y="17.53" width="1.34" height="1.49" rx=".64" ry=".64" transform="translate(55.27 -18.72) rotate(90)"/>
    </g>
    <g>
      <polygon class="cls-1" points="4.05 17.86 4.68 18.71 4.68 23.92 4.05 23.92 4.05 17.86"/>
      <rect class="cls-1" x="3.7" y="17.53" width="1.34" height="1.49" rx=".64" ry=".64" transform="translate(22.65 13.91) rotate(90)"/>
    </g>
    <g>
      <polygon class="cls-1" points="12.19 17.86 12.82 18.71 12.82 23.92 12.19 23.92 12.19 17.86"/>
      <rect class="cls-1" x="11.84" y="17.53" width="1.34" height="1.49" rx=".64" ry=".64" transform="translate(30.79 5.77) rotate(90)"/>
    </g>
  </g>
</svg>