<?xml version="1.0" encoding="UTF-8"?>
<svg id="_Слой_1" data-name="Слой 1" xmlns="http://www.w3.org/2000/svg" viewBox="0 0 50.57 50.57">
  <defs>
    <style>
      .cls-1 {
        fill: #78a2cc;
      }

      .cls-2 {
        fill: #e7e7e7;
      }

      .cls-3 {
        opacity: .4;
      }

      .cls-3, .cls-4 {
        fill: #aecae1;
      }

      .cls-5 {
        fill: #d3d3d3;
      }

      .cls-6 {
        fill: #5f8faf;
      }
    </style>
  </defs>
  <g>
    <path class="cls-4" d="M50.57,6.1C50.57,2.73,47.84,0,44.48,0H6.1C2.73,0,0,2.73,0,6.1V40.12H50.57V6.1Z"/>
    <path class="cls-6" d="M6.1,50.57H44.48c3.37,0,6.1-3.52,6.1-7.86v-5.62H0v5.62C0,47.05,2.73,50.57,6.1,50.57Z"/>
    <rect class="cls-3" x="6.65" y="39.64" width="37.01" height=".89" rx=".45" ry=".45" transform="translate(50.32 80.17) rotate(-180)"/>
    <rect class="cls-3" x="11.53" y="41.35" width="22.3" height="1.02" rx=".51" ry=".51"/>
    <rect class="cls-3" x="17.42" y="43.13" width="24.58" height=".8" rx=".4" ry=".4"/>
    <rect class="cls-3" x="11.61" y="44.76" width="21.4" height=".96" rx=".48" ry=".48"/>
    <rect class="cls-3" x="25.22" y="46.57" width="8.66" height=".8" rx=".4" ry=".4"/>
  </g>
  <rect class="cls-1" x="0" y="20.06" width="50.57" height="1.99"/>
  <path class="cls-1" d="M18.14,26.98C10.74,23.32,0,23.7,0,23.7v-1.65H18.14v4.93Z"/>
  <path class="cls-1" d="M32.67,26.96c7.31-3.66,17.9-3.28,17.9-3.28v-1.65h-17.9v4.93Z"/>
  <path class="cls-2" d="M22.97,15.69h4.85c2.67,0,4.83,2.17,4.83,4.83v16.57h-14.52V20.52c0-2.67,2.17-4.83,4.83-4.83Z"/>
  <path class="cls-5" d="M19.64,24.69h0c.45,0,.82,.37,.82,.82v9.34h-1.64v-9.34c0-.45,.37-.82,.82-.82Z"/>
  <path class="cls-5" d="M22.5,24.69h0c.45,0,.82,.37,.82,.82v9.34h-1.64v-9.34c0-.45,.37-.82,.82-.82Z"/>
  <path class="cls-5" d="M25.37,24.69h0c.45,0,.82,.37,.82,.82v9.34h-1.64v-9.34c0-.45,.37-.82,.82-.82Z"/>
  <path class="cls-5" d="M28.3,24.69h0c.45,0,.82,.37,.82,.82v9.34h-1.64v-9.34c0-.45,.37-.82,.82-.82Z"/>
  <path class="cls-5" d="M31.2,24.69h0c.45,0,.82,.37,.82,.82v9.34h-1.64v-9.34c0-.45,.37-.82,.82-.82Z"/>
  <rect class="cls-5" x="18.14" y="34.72" width="14.52" height=".6"/>
  <rect class="cls-5" x="17.21" y="21.89" width="16.24" height="2.05"/>
  <rect class="cls-5" x="17.85" y="21.32" width="15.05" height=".57"/>
  <rect class="cls-5" x="19.95" y="18.44" width="2.79" height="3.61" rx=".63" ry=".63"/>
  <rect class="cls-5" x="23.89" y="18.44" width="2.79" height="3.61" rx=".63" ry=".63"/>
  <rect class="cls-5" x="27.84" y="18.44" width="2.79" height="3.61" rx=".63" ry=".63"/>
  <rect class="cls-4" x="14.8" y="21.58" width=".86" height="2.73"/>
  <rect class="cls-4" x="13.05" y="21.58" width=".76" height="1.98"/>
  <rect class="cls-4" x="11.64" y="21.58" width=".62" height="1.23"/>
  <rect class="cls-4" x="34.98" y="21.58" width=".86" height="2.73" transform="translate(70.82 45.9) rotate(180)"/>
  <rect class="cls-4" x="36.83" y="21.58" width=".76" height="1.98" transform="translate(74.43 45.14) rotate(180)"/>
  <rect class="cls-4" x="38.38" y="21.58" width=".62" height="1.23" transform="translate(77.38 44.39) rotate(180)"/>
  <g>
    <rect class="cls-1" x="16.54" y="13.16" width=".43" height="7.08"/>
    <rect class="cls-1" x="14.95" y="13.78" width=".28" height="1.27"/>
    <rect class="cls-1" x="16.61" y="12.12" width=".24" height="3.56" transform="translate(30.63 -2.83) rotate(90)"/>
    <rect class="cls-1" x="18.23" y="13.78" width=".28" height="1.27"/>
    <ellipse class="cls-1" cx="15.08" cy="15.13" rx=".29" ry=".28"/>
    <ellipse class="cls-1" cx="18.37" cy="15.13" rx=".29" ry=".28"/>
  </g>
  <g>
    <rect class="cls-1" x="33.91" y="13.16" width=".43" height="7.08"/>
    <rect class="cls-1" x="32.33" y="13.78" width=".28" height="1.27"/>
    <rect class="cls-1" x="33.98" y="12.12" width=".24" height="3.56" transform="translate(48 -20.21) rotate(90)"/>
    <rect class="cls-1" x="35.6" y="13.78" width=".28" height="1.27"/>
    <ellipse class="cls-1" cx="32.45" cy="15.13" rx=".29" ry=".28"/>
    <ellipse class="cls-1" cx="35.74" cy="15.13" rx=".29" ry=".28"/>
  </g>
</svg>