<?xml version="1.0" encoding="UTF-8"?>
<svg id="_Слой_1" data-name="Слой 1" xmlns="http://www.w3.org/2000/svg" xmlns:xlink="http://www.w3.org/1999/xlink" viewBox="0 0 50.57 50.57">
  <defs>
    <style>
      .cls-1 {
        fill: #78a2cc;
      }

      .cls-2 {
        fill: #e7e7e7;
      }

      .cls-3 {
        opacity: .4;
      }

      .cls-3, .cls-4 {
        fill: #aecae1;
      }

      .cls-5 {
        clip-path: url(#clippath);
      }

      .cls-6 {
        fill: #d3d3d3;
      }

      .cls-7 {
        fill: none;
      }

      .cls-8 {
        fill: #5f8faf;
      }
    </style>
    <clipPath id="clippath">
      <path class="cls-7" d="M44.48,0H6.1C2.73,0,0,2.73,0,6.1V42.71C0,47.05,2.73,50.57,6.1,50.57H44.48c3.37,0,6.1-3.52,6.1-7.86V6.1c0-3.37-2.73-6.1-6.1-6.1Z"/>
    </clipPath>
  </defs>
  <g class="cls-5">
    <g>
      <g>
        <path class="cls-4" d="M50.57,6.1C50.57,2.73,47.84,0,44.48,0H6.1C2.73,0,0,2.73,0,6.1V40.12H50.57V6.1Z"/>
        <path class="cls-8" d="M6.1,50.57H44.48c3.37,0,6.1-3.52,6.1-7.86v-5.62H0v5.62C0,47.05,2.73,50.57,6.1,50.57Z"/>
        <rect class="cls-3" x="6.65" y="39.64" width="37.01" height=".89" rx=".45" ry=".45" transform="translate(50.32 80.17) rotate(-180)"/>
        <rect class="cls-3" x="11.53" y="41.35" width="22.3" height="1.02" rx=".51" ry=".51"/>
        <rect class="cls-3" x="17.42" y="43.13" width="24.58" height=".8" rx=".4" ry=".4"/>
        <rect class="cls-3" x="11.61" y="44.76" width="21.4" height=".96" rx=".48" ry=".48"/>
        <rect class="cls-3" x="25.22" y="46.57" width="8.66" height=".8" rx=".4" ry=".4"/>
      </g>
      <rect class="cls-1" x="0" y="23.7" width="50.57" height="2.01"/>
      <g>
        <path class="cls-1" d="M13.49,24.71h-3.67l-.15-.14c-7.2-6.91-11.72-6.85-11.78-6.85l-.52,.02v-2.3s.48-.01,.48-.01c10.26-.27,15.2,3.02,15.41,3.16l.22,.15v5.98Zm-3.27-1h2.27v-4.44c-1.03-.6-5.72-3-14.11-2.87v.34c1.43,.15,5.7,1.12,11.84,6.97Z"/>
        <polygon class="cls-1" points="8.84 23.68 7.39 18.14 3.96 19.82 2.2 16.29 3.1 15.84 4.41 18.49 8.04 16.7 9.36 21.72 12.43 18.58 13.14 19.28 8.84 23.68"/>
        <g>
          <polygon class="cls-6" points="15.47 15.01 14 16.06 16.94 16.06 15.47 15.01"/>
          <g>
            <rect class="cls-6" x="17.94" y="25.7" width="1.79" height="11.39"/>
            <rect class="cls-6" x="11.69" y="27.03" width="2.71" height="10.07"/>
            <polygon class="cls-1" points="10.02 25.7 11.69 27.03 12.99 27.03 13.05 25.7 10.02 25.7"/>
            <rect class="cls-2" x="12.99" y="18.48" width="4.95" height="18.61"/>
            <rect class="cls-2" x="14" y="16.06" width="2.94" height="2.42"/>
            <rect class="cls-6" x="14.4" y="16.6" width="2.07" height="1.88"/>
            <rect class="cls-6" x="14.05" y="19.08" width="2.84" height="10.1"/>
            <ellipse class="cls-2" cx="15.44" cy="30.11" rx="1.83" ry="1.59"/>
            <ellipse class="cls-6" cx="15.44" cy="30.53" rx="1.55" ry="1.35"/>
          </g>
        </g>
        <rect class="cls-1" x="1.19" y="18.04" width=".43" height="6.08"/>
        <rect class="cls-1" x="5" y="20.22" width=".43" height="3.91"/>
      </g>
      <g>
        <path class="cls-1" d="M37.07,24.71h3.67l.15-.14c7.2-6.91,11.72-6.85,11.78-6.85l.52,.02v-2.3s-.48-.01-.48-.01c-10.26-.27-15.2,3.02-15.41,3.16l-.22,.15v5.98Zm3.27-1h-2.27v-4.44c1.03-.6,5.72-3,14.11-2.87v.34c-1.43,.15-5.7,1.12-11.84,6.97Z"/>
        <polygon class="cls-1" points="41.71 23.68 43.17 18.14 46.6 19.82 48.36 16.29 47.46 15.84 46.15 18.49 42.51 16.7 41.2 21.72 38.13 18.58 37.41 19.28 41.71 23.68"/>
        <g>
          <polygon class="cls-6" points="35.09 15.01 36.56 16.06 33.62 16.06 35.09 15.01"/>
          <g>
            <rect class="cls-6" x="30.83" y="25.7" width="1.79" height="11.39" transform="translate(63.44 62.8) rotate(180)"/>
            <rect class="cls-6" x="36.15" y="27.03" width="2.71" height="10.07" transform="translate(75.02 64.12) rotate(180)"/>
            <polygon class="cls-1" points="40.53 25.7 38.87 27.03 37.57 27.03 37.51 25.7 40.53 25.7"/>
            <rect class="cls-2" x="32.61" y="18.48" width="4.95" height="18.61" transform="translate(70.18 55.58) rotate(180)"/>
            <rect class="cls-2" x="33.62" y="16.06" width="2.94" height="2.42" transform="translate(70.18 34.55) rotate(180)"/>
            <rect class="cls-6" x="34.08" y="16.6" width="2.07" height="1.88" transform="translate(70.24 35.08) rotate(180)"/>
            <rect class="cls-6" x="33.67" y="19.08" width="2.84" height="10.1" transform="translate(70.18 48.25) rotate(180)"/>
            <ellipse class="cls-2" cx="35.12" cy="30.11" rx="1.83" ry="1.59"/>
            <ellipse class="cls-6" cx="35.12" cy="30.53" rx="1.55" ry="1.35"/>
          </g>
        </g>
        <rect class="cls-1" x="48.93" y="18.04" width=".43" height="6.08" transform="translate(98.29 42.17) rotate(180)"/>
        <rect class="cls-1" x="45.12" y="20.22" width=".43" height="3.91" transform="translate(90.67 44.35) rotate(180)"/>
      </g>
      <path class="cls-1" d="M17.94,27.26c6.15-3.35,14.67-.26,14.67-.26v-1.5h-14.67v1.76Z"/>
    </g>
  </g>
</svg>