<?xml version="1.0" encoding="utf-8"?>
<!-- Generator: Adobe Illustrator 26.4.1, SVG Export Plug-In . SVG Version: 6.00 Build 0)  -->
<svg version="1.1" id="Слой_1" xmlns="http://www.w3.org/2000/svg" xmlns:xlink="http://www.w3.org/1999/xlink" x="0px" y="0px"
	 viewBox="0 0 50.6 50.6" style="enable-background:new 0 0 50.6 50.6;" xml:space="preserve">
<style type="text/css">
	.st0{fill:#FFFFFF;}
	.st1{fill:#DCDCDC;}
	.st2{fill:#C0B2A3;}
	.st3{fill:#4D8BC1;}
	.st4{fill:#DCCCBE;}
	.st5{fill:#E0E0DF;}
	.st6{fill:#39485D;}
	.st7{fill:#B9481E;}
	.st8{fill:#80958B;}
	.st9{fill:#D9A63B;}
	.st10{fill:none;}
	.st11{fill:#434650;}
	.st12{fill:#AECAE1;}
	.st13{fill:#78A2CC;}
	.st14{fill:#E7E7E7;}
	.st15{fill:#CDCDCD;}
	.st16{fill:#1F313F;}
	.st17{fill:#6B8898;}
	.st18{fill:#324E60;}
	.st19{fill:#FFFFFD;}
	.st20{fill:#5F8FAF;}
	.st21{opacity:0.4;fill:#AECAE1;}
	.st22{fill:#D3D3D3;}
	.st23{fill:#EAA639;}
	.st24{fill:#17212D;}
	.st25{fill:#2A3E51;}
	.st26{fill:#775017;}
	.st27{clip-path:url(#SVGID_00000099656189011601888570000011142108345142429610_);}
	.st28{opacity:0.4;fill:#AECAE1;enable-background:new    ;}
	.st29{clip-path:url(#SVGID_00000177465359415819556630000009650331809662193582_);}
	.st30{clip-path:url(#SVGID_00000176020633905795601280000009316692273037862049_);}
</style>
<g>
	<path class="st12" d="M50.6,6.1c0-3.4-2.7-6.1-6.1-6.1H6.1C2.7,0,0,2.7,0,6.1v34h50.6V6.1z"/>
	<path class="st20" d="M6.1,50.6h38.4c3.4,0,6.1-3.5,6.1-7.9v-5.6H0v5.6C0,47.1,2.7,50.6,6.1,50.6z"/>
	<path class="st21" d="M7.1,39.6h36.1c0.2,0,0.4,0.2,0.4,0.4v0c0,0.2-0.2,0.4-0.4,0.4H7.1c-0.2,0-0.4-0.2-0.4-0.4v0
		C6.7,39.8,6.9,39.6,7.1,39.6z"/>
	<path class="st21" d="M33.3,42.4H12c-0.3,0-0.5-0.2-0.5-0.5l0,0c0-0.3,0.2-0.5,0.5-0.5h21.3c0.3,0,0.5,0.2,0.5,0.5l0,0
		C33.8,42.1,33.6,42.4,33.3,42.4z"/>
	<path class="st21" d="M41.6,43.9H17.8c-0.2,0-0.4-0.2-0.4-0.4v0c0-0.2,0.2-0.4,0.4-0.4h23.8c0.2,0,0.4,0.2,0.4,0.4v0
		C42,43.7,41.8,43.9,41.6,43.9z"/>
	<path class="st21" d="M12.1,45.7h20.4c0.3,0,0.5-0.2,0.5-0.5l0,0c0-0.3-0.2-0.5-0.5-0.5H12.1c-0.3,0-0.5,0.2-0.5,0.5l0,0
		C11.6,45.5,11.8,45.7,12.1,45.7z"/>
	<path class="st21" d="M33.5,47.4h-7.9c-0.2,0-0.4-0.2-0.4-0.4l0,0c0-0.2,0.2-0.4,0.4-0.4h7.9c0.2,0,0.4,0.2,0.4,0.4l0,0
		C33.9,47.2,33.7,47.4,33.5,47.4z"/>
</g>
<g>
	<path class="st13" d="M30.8,23.9h19.8l0,5c-12.2,0.1-17.5,6.3-17.5,6.3L30.8,23.9z"/>
	<path class="st12" d="M30.8,25.9h19.8l0,0.7c-12.2,0.1-17.9,6.6-17.9,6.6L30.8,25.9z"/>
	<path class="st13" d="M19.6,23.9H0l0,5c12.1,0.1,17.3,6.3,17.3,6.3L19.6,23.9z"/>
	<path class="st12" d="M19.6,25.9H0l0,0.7c12.1,0.1,17.7,6.6,17.7,6.6L19.6,25.9z"/>
	<g>
		<rect y="21.7" class="st13" width="50.6" height="0.3"/>
		<g>
			<rect x="1.2" y="21.8" class="st13" width="0.6" height="2.2"/>
			<rect x="3.3" y="21.8" class="st13" width="0.6" height="2.2"/>
			<rect x="5.3" y="21.8" class="st13" width="0.6" height="2.2"/>
			<rect x="7.3" y="21.8" class="st13" width="0.6" height="2.2"/>
			<rect x="9.3" y="21.8" class="st13" width="0.6" height="2.2"/>
			<rect x="11.4" y="21.8" class="st13" width="0.6" height="2.2"/>
			<rect x="13.4" y="21.8" class="st13" width="0.6" height="2.2"/>
			<rect x="15.4" y="21.8" class="st13" width="0.6" height="2.2"/>
			<rect x="17.4" y="21.8" class="st13" width="0.6" height="2.2"/>
		</g>
		<g>
			<rect x="19.5" y="21.8" class="st13" width="0.6" height="2.2"/>
			<rect x="21.6" y="21.8" class="st13" width="0.6" height="2.2"/>
			<rect x="23.6" y="21.8" class="st13" width="0.6" height="2.2"/>
			<rect x="25.6" y="21.8" class="st13" width="0.6" height="2.2"/>
			<rect x="27.6" y="21.8" class="st13" width="0.6" height="2.2"/>
			<rect x="29.7" y="21.8" class="st13" width="0.6" height="2.2"/>
			<rect x="31.7" y="21.8" class="st13" width="0.6" height="2.2"/>
			<rect x="33.7" y="21.8" class="st13" width="0.6" height="2.2"/>
			<rect x="35.7" y="21.8" class="st13" width="0.6" height="2.2"/>
		</g>
		<g>
			<rect x="37.8" y="21.8" class="st13" width="0.6" height="2.2"/>
			<rect x="39.8" y="21.8" class="st13" width="0.6" height="2.2"/>
			<rect x="41.8" y="21.8" class="st13" width="0.6" height="2.2"/>
			<rect x="43.9" y="21.8" class="st13" width="0.6" height="2.2"/>
			<rect x="45.9" y="21.8" class="st13" width="0.6" height="2.2"/>
			<rect x="47.9" y="21.8" class="st13" width="0.6" height="2.2"/>
			<rect x="49.9" y="21.8" class="st13" width="0.6" height="2.2"/>
		</g>
	</g>
</g>
<g>
	
		<rect x="34.2" y="24.8" transform="matrix(0.9301 -0.3674 0.3674 0.9301 -8.1949 14.6787)" class="st13" width="0.6" height="8.1"/>
	
		<rect x="37.8" y="24.2" transform="matrix(0.9301 -0.3674 0.3674 0.9301 -7.4383 15.9039)" class="st13" width="0.6" height="6.6"/>
	
		<rect x="41.5" y="23.8" transform="matrix(0.9301 -0.3674 0.3674 0.9301 -6.8713 17.2244)" class="st13" width="0.6" height="5.7"/>
	
		<rect x="45.5" y="24.1" transform="matrix(0.9301 -0.3674 0.3674 0.9301 -6.5098 18.6804)" class="st13" width="0.6" height="4.7"/>
	<rect x="36" y="24.4" transform="matrix(0.9799 0.1995 -0.1995 0.9799 6.3966 -6.673)" class="st13" width="0.6" height="8.1"/>
	<rect x="39.8" y="24.3" transform="matrix(0.9799 0.1995 -0.1995 0.9799 6.2653 -7.4466)" class="st13" width="0.6" height="6.1"/>
	<rect x="43.8" y="24.1" transform="matrix(0.9799 0.1995 -0.1995 0.9799 6.2145 -8.2653)" class="st13" width="0.6" height="5.2"/>
	<rect x="48.2" y="24.1" transform="matrix(0.9799 0.1995 -0.1995 0.9799 6.2176 -9.1414)" class="st13" width="0.6" height="4.4"/>
</g>
<g>
	
		<rect x="15.5" y="24.8" transform="matrix(-0.9301 -0.3674 0.3674 -0.9301 19.9203 61.5211)" class="st13" width="0.6" height="8.1"/>
	
		<rect x="11.9" y="24.2" transform="matrix(-0.9301 -0.3674 0.3674 -0.9301 13.484 57.5461)" class="st13" width="0.6" height="6.6"/>
	
		<rect x="8.2" y="23.8" transform="matrix(-0.9301 -0.3674 0.3674 -0.9301 6.5469 54.5678)" class="st13" width="0.6" height="5.7"/>
	
		<rect x="4.2" y="24.1" transform="matrix(-0.9301 -0.3674 0.3674 -0.9301 -1.1017 52.6688)" class="st13" width="0.6" height="4.7"/>
	
		<rect x="13.7" y="24.4" transform="matrix(-0.9799 0.1995 -0.1995 -0.9799 33.3268 53.4361)" class="st13" width="0.6" height="8.1"/>
	
		<rect x="9.9" y="24.3" transform="matrix(-0.9799 0.1995 -0.1995 -0.9799 25.6506 52.1329)" class="st13" width="0.6" height="6.1"/>
	
		<rect x="5.9" y="24.1" transform="matrix(-0.9799 0.1995 -0.1995 -0.9799 17.5281 51.6288)" class="st13" width="0.6" height="5.2"/>
	
		<rect x="1.5" y="24.1" transform="matrix(-0.9799 0.1995 -0.1995 -0.9799 8.8352 51.6595)" class="st13" width="0.6" height="4.4"/>
</g>
<g>
	<polygon class="st14" points="17.2,37.1 33.1,37.1 32.9,23.7 17.2,23.7 	"/>
	<path class="st22" d="M31.5,21.7h-13c-0.7,0-1.3,0.4-1.4,1v1h15.7l0-1C32.9,22.2,32.3,21.7,31.5,21.7z"/>
	<rect x="19.2" y="26" class="st22" width="3" height="1.1"/>
	<rect x="22.4" y="26" class="st22" width="3" height="1.1"/>
	<rect x="20.7" y="27.2" class="st22" width="3" height="1.1"/>
	<rect x="25.9" y="33.9" class="st22" width="3" height="1.1"/>
	<rect x="27.4" y="32.6" class="st22" width="3" height="1.1"/>
</g>
<g>
	<rect x="33.8" y="15.4" class="st13" width="0.4" height="7.1"/>
	<rect x="32.2" y="16" class="st13" width="0.3" height="1.3"/>
	
		<rect x="33.9" y="14.3" transform="matrix(-1.836970e-16 1 -1 -1.836970e-16 50.1095 -17.9055)" class="st13" width="0.2" height="3.6"/>
	<rect x="35.5" y="16" class="st13" width="0.3" height="1.3"/>
	<ellipse class="st13" cx="32.4" cy="17.3" rx="0.3" ry="0.3"/>
	<ellipse class="st13" cx="35.6" cy="17.3" rx="0.3" ry="0.3"/>
</g>
<rect x="17.2" y="23.7" class="st22" width="0.9" height="13.4"/>
<polygon class="st22" points="32.9,23.7 33.1,37.1 32.2,37.1 32.1,23.7 "/>
</svg>
