<?xml version="1.0" encoding="UTF-8"?>
<svg id="_Слой_1" data-name=" Слой 1" xmlns="http://www.w3.org/2000/svg" viewBox="0 0 50.57 50.57">
  <defs>
    <style>
      .cls-1 {
        isolation: isolate;
        opacity: .4;
      }

      .cls-1, .cls-2, .cls-3, .cls-4, .cls-5, .cls-6 {
        stroke-width: 0px;
      }

      .cls-1, .cls-5 {
        fill: #aecae1;
      }

      .cls-2 {
        fill: #5f8faf;
      }

      .cls-3 {
        fill: #78a2cc;
      }

      .cls-4 {
        fill: #d3d3d3;
      }

      .cls-6 {
        fill: #e7e7e7;
      }
    </style>
  </defs>
  <g>
    <path class="cls-5" d="M50.57,6.1C50.57,2.73,47.84,0,44.48,0H6.1C2.73,0,0,2.73,0,6.1v34.02h50.57V6.1Z"/>
    <path class="cls-2" d="M6.1,50.57h38.38c3.37,0,6.1-3.52,6.1-7.86v-5.62H0v5.62c0,4.34,2.73,7.86,6.1,7.86Z"/>
    <path class="cls-1" d="M43.22,40.53H7.11c-.25,0-.45-.2-.45-.44h0c0-.25.2-.44.45-.44h36.11c.25,0,.45.2.45.44h0c0,.25-.2.44-.45.44Z"/>
    <rect class="cls-1" x="11.53" y="41.35" width="22.3" height="1.02" rx=".51" ry=".51"/>
    <path class="cls-1" d="M17.82,43.13h23.78c.22,0,.4.18.4.4h0c0,.22-.18.4-.4.4h-23.78c-.22,0-.4-.18-.4-.4h0c0-.22.18-.4.4-.4Z"/>
    <path class="cls-1" d="M12.09,44.76h20.44c.27,0,.48.21.48.48h0c0,.27-.21.48-.48.48H12.09c-.27,0-.48-.21-.48-.48h0c0-.27.21-.48.48-.48Z"/>
    <path class="cls-1" d="M25.62,46.57h7.86c.22,0,.4.18.4.4h0c0,.22-.18.4-.4.4h-7.86c-.22,0-.4-.18-.4-.4h0c0-.22.18-.4.4-.4Z"/>
  </g>
  <rect class="cls-3" y="23.04" width="50.57" height="1.66"/>
  <rect class="cls-3" x="13.41" y="13.73" width=".58" height="9.4"/>
  <path class="cls-3" d="M8.08,27.57c-2.55-2.25-8.08-2.28-8.08-2.28v-.58h8.26l-.18,2.87Z"/>
  <path class="cls-3" d="M19.43,26.99c1.73-1.45,6.13-1.53,6.13-1.53v-.76h-6.25l.12,2.29Z"/>
  <path class="cls-3" d="M43.05,27.57c2.55-2.25,8.08-2.28,8.08-2.28v-.58h-8.26l.18,2.87Z"/>
  <path class="cls-3" d="M31.7,26.99c-1.73-1.45-6.13-1.53-6.13-1.53v-.76h6.25l-.12,2.29Z"/>
  <g>
    <path class="cls-6" d="M9.15,22.17h9.29c.43,0,.78.35.78.78l.73,14.14H7.48l.89-14.14c0-.43.35-.78.78-.78Z"/>
    <rect class="cls-4" x="10.22" y="25.71" width="3.02" height="1.09"/>
    <rect class="cls-4" x="13.1" y="33.18" width="3.02" height="1.09"/>
    <rect class="cls-4" x="11.51" y="31.91" width="3.02" height="1.09"/>
    <rect class="cls-4" x="14.75" y="31.91" width="3.02" height="1.09"/>
    <rect class="cls-4" x="11.73" y="24.37" width="3.02" height="1.09"/>
  </g>
  <g>
    <path class="cls-6" d="M41.98,22.17h-9.29c-.43,0-.78.35-.78.78l-.73,14.14h12.47l-.89-14.14c0-.43-.35-.78-.78-.78Z"/>
    <rect class="cls-4" x="37.89" y="25.71" width="3.02" height="1.09"/>
    <rect class="cls-4" x="35.01" y="33.18" width="3.02" height="1.09"/>
    <rect class="cls-4" x="36.6" y="31.91" width="3.02" height="1.09"/>
    <rect class="cls-4" x="33.36" y="31.91" width="3.02" height="1.09"/>
    <rect class="cls-4" x="36.38" y="24.37" width="3.02" height="1.09"/>
  </g>
  <path class="cls-4" d="M7.69,37.09h-.83l.9-14.56c.01-.23.21-.4.44-.39h0c.23.01.4.21.39.44l-.89,14.51Z"/>
  <path class="cls-4" d="M19.89,37.09h.83l-.9-14.56c-.01-.23-.21-.4-.44-.39h0c-.23.01-.4.21-.39.44l.89,14.51Z"/>
  <path class="cls-4" d="M31.31,37.09h-.83l.9-14.56c.01-.23.21-.4.44-.39h0c.23.01.4.21.39.44l-.89,14.51Z"/>
  <path class="cls-4" d="M43.51,37.09h.83l-.9-14.56c-.01-.23-.21-.4-.44-.39h0c-.23.01-.4.21-.39.44l.89,14.51Z"/>
  <rect class="cls-3" x="12.83" y="15.05" width="1.77" height="2.14" rx=".58" ry=".58"/>
  <rect class="cls-3" x="37.18" y="13.73" width=".58" height="8.44"/>
  <rect class="cls-3" x="36.6" y="15.05" width="1.77" height="2.14" rx=".58" ry=".58"/>
</svg>