<?xml version="1.0" encoding="utf-8"?>
<!-- Generator: Adobe Illustrator 26.4.1, SVG Export Plug-In . SVG Version: 6.00 Build 0)  -->
<svg version="1.1" id="Слой_1" xmlns="http://www.w3.org/2000/svg" xmlns:xlink="http://www.w3.org/1999/xlink" x="0px" y="0px"
	 viewBox="0 0 50.6 50.6" style="enable-background:new 0 0 50.6 50.6;" xml:space="preserve">
<style type="text/css">
	.st0{fill:#FFFFFF;}
	.st1{fill:#DCDCDC;}
	.st2{fill:#C0B2A3;}
	.st3{fill:#4D8BC1;}
	.st4{fill:#DCCCBE;}
	.st5{fill:#E0E0DF;}
	.st6{fill:#39485D;}
	.st7{fill:#B9481E;}
	.st8{fill:#80958B;}
	.st9{fill:#D9A63B;}
	.st10{fill:none;}
	.st11{fill:#434650;}
	.st12{fill:#AECAE1;}
	.st13{fill:#78A2CC;}
	.st14{fill:#E7E7E7;}
	.st15{fill:#CDCDCD;}
	.st16{fill:#1F313F;}
	.st17{fill:#6B8898;}
	.st18{fill:#324E60;}
	.st19{fill:#FFFFFD;}
	.st20{fill:#5F8FAF;}
	.st21{opacity:0.4;fill:#AECAE1;}
	.st22{fill:#D3D3D3;}
	.st23{fill:#EAA639;}
	.st24{fill:#17212D;}
	.st25{fill:#2A3E51;}
	.st26{fill:#775017;}
	.st27{clip-path:url(#SVGID_00000141438675360579710670000001429157761905254323_);}
	.st28{opacity:0.4;fill:#AECAE1;enable-background:new    ;}
	.st29{clip-path:url(#SVGID_00000059268915497770355300000001490539636866820522_);}
	.st30{clip-path:url(#SVGID_00000047753579606842079800000014858094327108571289_);}
</style>
<g>
	<path class="st12" d="M50.6,6.1c0-3.4-2.7-6.1-6.1-6.1H6.1C2.7,0,0,2.7,0,6.1v34h50.6V6.1z"/>
	<path class="st20" d="M6.1,50.6h38.4c3.4,0,6.1-3.5,6.1-7.9v-5.6H0v5.6C0,47.1,2.7,50.6,6.1,50.6z"/>
	<path class="st21" d="M7.1,39.6h36.1c0.2,0,0.4,0.2,0.4,0.4v0c0,0.2-0.2,0.4-0.4,0.4H7.1c-0.2,0-0.4-0.2-0.4-0.4v0
		C6.7,39.8,6.9,39.6,7.1,39.6z"/>
	<path class="st21" d="M33.3,42.4H12c-0.3,0-0.5-0.2-0.5-0.5l0,0c0-0.3,0.2-0.5,0.5-0.5h21.3c0.3,0,0.5,0.2,0.5,0.5l0,0
		C33.8,42.1,33.6,42.4,33.3,42.4z"/>
	<path class="st21" d="M41.6,43.9H17.8c-0.2,0-0.4-0.2-0.4-0.4v0c0-0.2,0.2-0.4,0.4-0.4h23.8c0.2,0,0.4,0.2,0.4,0.4v0
		C42,43.7,41.8,43.9,41.6,43.9z"/>
	<path class="st21" d="M12.1,45.7h20.4c0.3,0,0.5-0.2,0.5-0.5l0,0c0-0.3-0.2-0.5-0.5-0.5H12.1c-0.3,0-0.5,0.2-0.5,0.5l0,0
		C11.6,45.5,11.8,45.7,12.1,45.7z"/>
	<path class="st21" d="M33.5,47.4h-7.9c-0.2,0-0.4-0.2-0.4-0.4l0,0c0-0.2,0.2-0.4,0.4-0.4h7.9c0.2,0,0.4,0.2,0.4,0.4l0,0
		C33.9,47.2,33.7,47.4,33.5,47.4z"/>
</g>
<g>
	<rect x="0" y="21.7" class="st14" width="50.6" height="2"/>
	<path class="st14" d="M50.6,26.8c-18.2,0.4-25.3,3.6-25.3,3.6S18.2,27.2,0,26.8v-2.7h50.6V26.8z"/>
	<rect x="0" y="22.6" class="st13" width="50.6" height="1.5"/>
</g>
<g>
	<rect x="25" y="14.7" class="st13" width="0.4" height="7.1"/>
	<rect x="23.4" y="15.3" class="st13" width="0.3" height="1.3"/>
	
		<rect x="25" y="13.6" transform="matrix(-1.836970e-16 1 -1 -1.836970e-16 40.5569 -9.7804)" class="st13" width="0.2" height="3.6"/>
	<rect x="26.7" y="15.3" class="st13" width="0.3" height="1.3"/>
	<ellipse class="st13" cx="23.5" cy="16.6" rx="0.3" ry="0.3"/>
	<ellipse class="st13" cx="26.8" cy="16.6" rx="0.3" ry="0.3"/>
</g>
<path class="st13" d="M27,37.1h-3.5v-5.5c0-0.6,0.5-1.2,1.2-1.2h1.1c0.6,0,1.2,0.5,1.2,1.2V37.1z"/>
<g>
	<defs>
		<path id="SVGID_00000142876550271905950240000001144233431066097569_" d="M50.6,26.8c-18.2,0.4-25.3,3.6-25.3,3.6
			S18.2,27.2,0,26.8v-2.7h50.6V26.8z"/>
	</defs>
	<clipPath id="SVGID_00000114060813151853983340000007698213700059691181_">
		<use xlink:href="#SVGID_00000142876550271905950240000001144233431066097569_"  style="overflow:visible;"/>
	</clipPath>
	<g style="clip-path:url(#SVGID_00000114060813151853983340000007698213700059691181_);">
		<rect x="1" y="24.1" class="st22" width="0.5" height="3.9"/>
		<rect x="3.4" y="24.1" class="st22" width="0.5" height="4.2"/>
		<rect x="5.8" y="24.1" class="st22" width="0.5" height="7.4"/>
		<rect x="8.2" y="24.1" class="st22" width="0.5" height="7.4"/>
		<rect x="10.6" y="24.1" class="st22" width="0.5" height="7.4"/>
		<rect x="13" y="24.1" class="st22" width="0.5" height="7.4"/>
		<rect x="15.3" y="24.1" class="st22" width="0.5" height="7.4"/>
		<rect x="17.7" y="24.1" class="st22" width="0.5" height="7.4"/>
		<rect x="20.1" y="24.1" class="st22" width="0.5" height="7.4"/>
		<rect x="22.5" y="24.1" class="st22" width="0.5" height="7.4"/>
		
			<rect x="48.8" y="24.1" transform="matrix(-1 -1.224647e-16 1.224647e-16 -1 98.1907 52.1056)" class="st22" width="0.5" height="3.9"/>
		
			<rect x="46.5" y="24.1" transform="matrix(-1 -1.224647e-16 1.224647e-16 -1 93.4052 52.3365)" class="st22" width="0.5" height="4.2"/>
		
			<rect x="44.1" y="24.1" transform="matrix(-1 -1.224647e-16 1.224647e-16 -1 88.6197 55.5587)" class="st22" width="0.5" height="7.4"/>
		
			<rect x="41.7" y="24.1" transform="matrix(-1 -1.224647e-16 1.224647e-16 -1 83.8342 55.5587)" class="st22" width="0.5" height="7.4"/>
		
			<rect x="39.3" y="24.1" transform="matrix(-1 -1.224647e-16 1.224647e-16 -1 79.0487 55.5587)" class="st22" width="0.5" height="7.4"/>
		
			<rect x="36.9" y="24.1" transform="matrix(-1 -1.224647e-16 1.224647e-16 -1 74.2632 55.5587)" class="st22" width="0.5" height="7.4"/>
		
			<rect x="34.5" y="24.1" transform="matrix(-1 -1.224647e-16 1.224647e-16 -1 69.4777 55.5587)" class="st22" width="0.5" height="7.4"/>
		
			<rect x="32.1" y="24.1" transform="matrix(-1 -1.224647e-16 1.224647e-16 -1 64.6922 55.5587)" class="st22" width="0.5" height="7.4"/>
		
			<rect x="29.7" y="24.1" transform="matrix(-1 -1.224647e-16 1.224647e-16 -1 59.9067 55.5587)" class="st22" width="0.5" height="7.4"/>
		
			<rect x="27.3" y="24.1" transform="matrix(-1 -1.224647e-16 1.224647e-16 -1 55.1213 55.5587)" class="st22" width="0.5" height="7.4"/>
		<rect x="24.9" y="24.1" class="st22" width="0.5" height="7.4"/>
	</g>
</g>
</svg>
