<?xml version="1.0" encoding="utf-8"?>
<!-- Generator: Adobe Illustrator 26.4.1, SVG Export Plug-In . SVG Version: 6.00 Build 0)  -->
<svg version="1.1" id="Слой_1" xmlns="http://www.w3.org/2000/svg" xmlns:xlink="http://www.w3.org/1999/xlink" x="0px" y="0px"
	 viewBox="0 0 50.6 50.6" style="enable-background:new 0 0 50.6 50.6;" xml:space="preserve">
<style type="text/css">
	.st0{fill:#FFFFFF;}
	.st1{fill:#DCDCDC;}
	.st2{fill:#C0B2A3;}
	.st3{fill:#4D8BC1;}
	.st4{fill:#DCCCBE;}
	.st5{fill:#E0E0DF;}
	.st6{fill:#39485D;}
	.st7{fill:#B9481E;}
	.st8{fill:#80958B;}
	.st9{fill:#D9A63B;}
	.st10{fill:none;}
	.st11{fill:#434650;}
	.st12{fill:#AECAE1;}
	.st13{fill:#78A2CC;}
	.st14{fill:#E7E7E7;}
	.st15{fill:#CDCDCD;}
	.st16{fill:#1F313F;}
	.st17{fill:#6B8898;}
	.st18{fill:#324E60;}
	.st19{fill:#FFFFFD;}
	.st20{fill:#5F8FAF;}
	.st21{opacity:0.4;fill:#AECAE1;}
	.st22{fill:#D3D3D3;}
	.st23{fill:#EAA639;}
	.st24{fill:#17212D;}
	.st25{fill:#2A3E51;}
	.st26{fill:#775017;}
	.st27{clip-path:url(#SVGID_00000070839673154976701550000008533519609206531003_);}
	.st28{opacity:0.4;fill:#AECAE1;enable-background:new    ;}
	.st29{clip-path:url(#SVGID_00000148625485287496437280000009787671133086040734_);}
	.st30{clip-path:url(#SVGID_00000015343129631001448120000010570641516317492884_);}
</style>
<g>
	<path class="st12" d="M50.6,6.1c0-3.4-2.7-6.1-6.1-6.1H6.1C2.7,0,0,2.7,0,6.1v34h50.6V6.1z"/>
	<path class="st20" d="M6.1,50.6h38.4c3.4,0,6.1-3.5,6.1-7.9v-5.6H0v5.6C0,47.1,2.7,50.6,6.1,50.6z"/>
	<path class="st21" d="M7.1,39.6h36.1c0.2,0,0.4,0.2,0.4,0.4v0c0,0.2-0.2,0.4-0.4,0.4H7.1c-0.2,0-0.4-0.2-0.4-0.4v0
		C6.7,39.8,6.9,39.6,7.1,39.6z"/>
	<path class="st21" d="M33.3,42.4H12c-0.3,0-0.5-0.2-0.5-0.5l0,0c0-0.3,0.2-0.5,0.5-0.5h21.3c0.3,0,0.5,0.2,0.5,0.5l0,0
		C33.8,42.1,33.6,42.4,33.3,42.4z"/>
	<path class="st21" d="M41.6,43.9H17.8c-0.2,0-0.4-0.2-0.4-0.4v0c0-0.2,0.2-0.4,0.4-0.4h23.8c0.2,0,0.4,0.2,0.4,0.4v0
		C42,43.7,41.8,43.9,41.6,43.9z"/>
	<path class="st21" d="M12.1,45.7h20.4c0.3,0,0.5-0.2,0.5-0.5l0,0c0-0.3-0.2-0.5-0.5-0.5H12.1c-0.3,0-0.5,0.2-0.5,0.5l0,0
		C11.6,45.5,11.8,45.7,12.1,45.7z"/>
	<path class="st21" d="M33.5,47.4h-7.9c-0.2,0-0.4-0.2-0.4-0.4l0,0c0-0.2,0.2-0.4,0.4-0.4h7.9c0.2,0,0.4,0.2,0.4,0.4l0,0
		C33.9,47.2,33.7,47.4,33.5,47.4z"/>
</g>
<g>
	<path class="st13" d="M25,23.9h25.6l0,5c-15.8,0.1-22.7,6.3-22.7,6.3L25,23.9z"/>
	<path class="st12" d="M25,25.9h25.6l0,0.7c-15.8,0.1-23.2,6.6-23.2,6.6L25,25.9z"/>
	<path class="st13" d="M25.4,23.9H0l0,5c15.7,0.1,22.5,6.3,22.5,6.3L25.4,23.9z"/>
	<path class="st12" d="M25.4,25.9H0l0,0.7c15.7,0.1,23,6.6,23,6.6L25.4,25.9z"/>
	<g>
		<rect y="22" class="st13" width="50.6" height="0.3"/>
		<g>
			<rect x="1.2" y="22.1" class="st13" width="0.6" height="1.9"/>
			<rect x="3.3" y="22.1" class="st13" width="0.6" height="1.9"/>
			<rect x="5.3" y="22.1" class="st13" width="0.6" height="1.9"/>
			<rect x="7.3" y="22.1" class="st13" width="0.6" height="1.9"/>
			<rect x="9.3" y="22.1" class="st13" width="0.6" height="1.9"/>
			<rect x="11.4" y="22.1" class="st13" width="0.6" height="1.9"/>
			<rect x="13.4" y="22.1" class="st13" width="0.6" height="1.9"/>
			<rect x="15.4" y="22.1" class="st13" width="0.6" height="1.9"/>
			<rect x="17.4" y="22.1" class="st13" width="0.6" height="1.9"/>
		</g>
		<g>
			<rect x="19.5" y="22.1" class="st13" width="0.6" height="1.9"/>
			<rect x="21.6" y="22.1" class="st13" width="0.6" height="1.9"/>
			<rect x="23.6" y="22.1" class="st13" width="0.6" height="1.9"/>
			<rect x="25.6" y="22.1" class="st13" width="0.6" height="1.9"/>
			<rect x="27.6" y="22.1" class="st13" width="0.6" height="1.9"/>
			<rect x="29.7" y="22.1" class="st13" width="0.6" height="1.9"/>
			<rect x="31.7" y="22.1" class="st13" width="0.6" height="1.9"/>
			<rect x="33.7" y="22.1" class="st13" width="0.6" height="1.9"/>
			<rect x="35.7" y="22.1" class="st13" width="0.6" height="1.9"/>
		</g>
		<g>
			<rect x="37.8" y="22.1" class="st13" width="0.6" height="1.9"/>
			<rect x="39.8" y="22.1" class="st13" width="0.6" height="1.9"/>
			<rect x="41.8" y="22.1" class="st13" width="0.6" height="1.9"/>
			<rect x="43.9" y="22.1" class="st13" width="0.6" height="1.9"/>
			<rect x="45.9" y="22.1" class="st13" width="0.6" height="1.9"/>
			<rect x="47.9" y="22.1" class="st13" width="0.6" height="1.9"/>
			<rect x="49.9" y="22.1" class="st13" width="0.6" height="1.9"/>
		</g>
	</g>
</g>
<g>
	<rect x="28.6" y="25.3" class="st13" width="0.4" height="7.3"/>
	<rect x="29.6" y="25" transform="matrix(0.964 -0.2659 0.2659 0.964 -6.5556 8.9483)" class="st13" width="0.4" height="7.3"/>
	<rect x="27.6" y="25.7" transform="matrix(0.964 -0.2659 0.2659 0.964 -6.8122 8.4594)" class="st13" width="0.4" height="7.3"/>
	<rect x="31.5" y="25" transform="matrix(0.964 -0.2659 0.2659 0.964 -6.4862 9.4604)" class="st13" width="0.4" height="7.3"/>
	<rect x="33.3" y="25.1" transform="matrix(0.964 -0.2659 0.2659 0.964 -6.2355 9.9235)" class="st13" width="0.4" height="5.9"/>
	<rect x="35.1" y="25.1" transform="matrix(0.964 -0.2659 0.2659 0.964 -6.171 10.3992)" class="st13" width="0.4" height="5.9"/>
	<rect x="36.7" y="25.1" transform="matrix(0.964 -0.2659 0.2659 0.964 -6.0198 10.8097)" class="st13" width="0.4" height="5.1"/>
	<rect x="38.4" y="25.1" transform="matrix(0.964 -0.2659 0.2659 0.964 -5.888 11.2444)" class="st13" width="0.4" height="4.6"/>
	<rect x="40.1" y="25.1" transform="matrix(0.964 -0.2659 0.2659 0.964 -5.7842 11.6891)" class="st13" width="0.4" height="4.2"/>
	<rect x="41.6" y="25.1" transform="matrix(0.964 -0.2659 0.2659 0.964 -5.6966 12.1042)" class="st13" width="0.4" height="4"/>
	<rect x="43.4" y="25.1" transform="matrix(0.964 -0.2659 0.2659 0.964 -5.5941 12.5728)" class="st13" width="0.4" height="3.7"/>
	<rect x="45.1" y="25.1" transform="matrix(0.964 -0.2659 0.2659 0.964 -5.4721 13.0129)" class="st13" width="0.4" height="3.2"/>
	<rect x="46.9" y="25.1" transform="matrix(0.964 -0.2659 0.2659 0.964 -5.4666 13.5006)" class="st13" width="0.4" height="3.7"/>
	<rect x="48.8" y="25.1" transform="matrix(0.964 -0.2659 0.2659 0.964 -5.3904 14.0038)" class="st13" width="0.4" height="3.6"/>
	<rect x="30.5" y="25.3" class="st13" width="0.4" height="7.3"/>
	<rect x="32.3" y="25" class="st13" width="0.4" height="7.3"/>
	<rect x="34.1" y="25" class="st13" width="0.4" height="6.1"/>
	<rect x="35.8" y="25" class="st13" width="0.4" height="5.6"/>
	<rect x="37.5" y="25" class="st13" width="0.4" height="3.7"/>
	<rect x="39.1" y="25" class="st13" width="0.4" height="3.7"/>
	<rect x="40.7" y="25" class="st13" width="0.4" height="3.7"/>
	<rect x="42.4" y="25" class="st13" width="0.4" height="3.7"/>
	<rect x="44.1" y="25" class="st13" width="0.4" height="3.7"/>
	<rect x="45.9" y="25" class="st13" width="0.4" height="3.7"/>
	<rect x="47.7" y="25" class="st13" width="0.4" height="3.7"/>
	<rect x="49.5" y="25" class="st13" width="0.4" height="3.7"/>
</g>
<g>
	
		<rect x="21.2" y="25.3" transform="matrix(-1 -1.224647e-16 1.224647e-16 -1 42.8091 57.8809)" class="st13" width="0.4" height="7.3"/>
	<rect x="20.2" y="25" transform="matrix(-0.964 -0.2659 0.2659 -0.964 32.5176 61.7723)" class="st13" width="0.4" height="7.3"/>
	
		<rect x="22.2" y="25.7" transform="matrix(-0.964 -0.2659 0.2659 -0.964 36.1291 63.6681)" class="st13" width="0.4" height="7.3"/>
	<rect x="18.3" y="25" transform="matrix(-0.964 -0.2659 0.2659 -0.964 28.7349 61.2601)" class="st13" width="0.4" height="7.3"/>
	
		<rect x="16.5" y="25.1" transform="matrix(-0.964 -0.2659 0.2659 -0.964 25.3148 59.4078)" class="st13" width="0.4" height="5.9"/>
	<rect x="14.7" y="25.1" transform="matrix(-0.964 -0.2659 0.2659 -0.964 21.8009 58.932)" class="st13" width="0.4" height="5.9"/>
	
		<rect x="13.1" y="25.1" transform="matrix(-0.964 -0.2659 0.2659 -0.964 18.7687 57.8149)" class="st13" width="0.4" height="5.1"/>
	
		<rect x="11.4" y="25.1" transform="matrix(-0.964 -0.2659 0.2659 -0.964 15.5583 56.8417)" class="st13" width="0.4" height="4.6"/>
	<rect x="9.7" y="25.1" transform="matrix(-0.964 -0.2659 0.2659 -0.964 12.2734 56.0749)" class="st13" width="0.4" height="4.2"/>
	<rect x="8.1" y="25.1" transform="matrix(-0.964 -0.2659 0.2659 -0.964 9.2068 55.4275)" class="st13" width="0.4" height="4"/>
	<rect x="6.4" y="25.1" transform="matrix(-0.964 -0.2659 0.2659 -0.964 5.7459 54.6708)" class="st13" width="0.4" height="3.7"/>
	<rect x="4.7" y="25.1" transform="matrix(-0.964 -0.2659 0.2659 -0.964 2.4951 53.7695)" class="st13" width="0.4" height="3.2"/>
	<rect x="2.9" y="25.1" transform="matrix(-0.964 -0.2659 0.2659 -0.964 -1.1072 53.7284)" class="st13" width="0.4" height="3.7"/>
	<rect x="1" y="25.1" transform="matrix(-0.964 -0.2659 0.2659 -0.964 -4.8241 53.1657)" class="st13" width="0.4" height="3.6"/>
	
		<rect x="19.3" y="25.3" transform="matrix(-1 -1.224647e-16 1.224647e-16 -1 39.0747 57.8809)" class="st13" width="0.4" height="7.3"/>
	
		<rect x="17.5" y="25" transform="matrix(-1 -1.224647e-16 1.224647e-16 -1 35.3403 57.2186)" class="st13" width="0.4" height="7.3"/>
	
		<rect x="15.7" y="25" transform="matrix(-1 -1.224647e-16 1.224647e-16 -1 31.8677 55.9918)" class="st13" width="0.4" height="6.1"/>
	
		<rect x="14" y="25" transform="matrix(-1 -1.224647e-16 1.224647e-16 -1 28.3669 55.5077)" class="st13" width="0.4" height="5.6"/>
	
		<rect x="12.3" y="25" transform="matrix(-1 -1.224647e-16 1.224647e-16 -1 25.0812 53.5638)" class="st13" width="0.4" height="3.7"/>
	
		<rect x="10.7" y="25" transform="matrix(-1 -1.224647e-16 1.224647e-16 -1 21.8193 53.5638)" class="st13" width="0.4" height="3.7"/>
	
		<rect x="9.1" y="25" transform="matrix(-1 -1.224647e-16 1.224647e-16 -1 18.5812 53.5638)" class="st13" width="0.4" height="3.7"/>
	
		<rect x="7.4" y="25" transform="matrix(-1 -1.224647e-16 1.224647e-16 -1 15.2405 53.5638)" class="st13" width="0.4" height="3.7"/>
	
		<rect x="5.7" y="25" transform="matrix(-1 -1.224647e-16 1.224647e-16 -1 11.7398 53.5638)" class="st13" width="0.4" height="3.7"/>
	<rect x="3.9" y="25" transform="matrix(-1 -1.224647e-16 1.224647e-16 -1 8.239 53.5638)" class="st13" width="0.4" height="3.7"/>
	
		<rect x="2.1" y="25" transform="matrix(-1 -1.224647e-16 1.224647e-16 -1 4.6055 53.5638)" class="st13" width="0.4" height="3.7"/>
	<rect x="0.3" y="25" transform="matrix(-1 -1.224647e-16 1.224647e-16 -1 0.972 53.5638)" class="st13" width="0.4" height="3.7"/>
</g>
<g>
	<polygon class="st14" points="27.6,33.9 25.2,33.1 22.7,33.9 22.7,22.3 27.6,22.3 	"/>
	<path class="st22" d="M27.5,33.9h0.1l-2.4-0.8l-2.4,0.8h0.1c-0.5,0-0.9,0.4-0.9,0.9v2.3h6.4v-2.3C28.3,34.3,27.9,33.9,27.5,33.9z"
		/>
	<path class="st22" d="M26,20.2h-0.8h-0.8c0,0-0.3,1.6-1.6,2.1h2.4h2.4C26.3,21.9,26,20.2,26,20.2z"/>
	<path class="st22" d="M26.1,20.2h-1.9v-0.4c0-0.3,0.3-0.6,0.6-0.6h0.8c0.3,0,0.6,0.3,0.6,0.6V20.2z"/>
	<path class="st22" d="M25.2,32.3L25.2,32.3c-0.7,0-1.2-0.6-1.2-1.2v-6.9c0-0.2,0.2-0.4,0.4-0.4H26c0.2,0,0.4,0.2,0.4,0.4V31
		C26.4,31.7,25.8,32.3,25.2,32.3z"/>
	<rect x="25" y="12.3" class="st13" width="0.4" height="6.9"/>
	<rect x="22.9" y="14" class="st13" width="0.4" height="2.9"/>
	<rect x="27.1" y="14" class="st13" width="0.4" height="2.9"/>
	
		<rect x="25" y="14.5" transform="matrix(-1.836970e-16 1 -1 -1.836970e-16 41.9141 -8.4073)" class="st13" width="0.4" height="4.5"/>
	<circle class="st13" cx="27.2" cy="15.2" r="0.6"/>
	<circle class="st13" cx="25.2" cy="13.5" r="0.6"/>
	<circle class="st13" cx="23.1" cy="15.2" r="0.6"/>
</g>
</svg>
