<?xml version="1.0" encoding="utf-8"?>
<!-- Generator: Adobe Illustrator 26.4.1, SVG Export Plug-In . SVG Version: 6.00 Build 0)  -->
<svg version="1.1" id="Слой_1" xmlns="http://www.w3.org/2000/svg" xmlns:xlink="http://www.w3.org/1999/xlink" x="0px" y="0px"
	 viewBox="0 0 50.6 50.6" style="enable-background:new 0 0 50.6 50.6;" xml:space="preserve">
<style type="text/css">
	.st0{fill:#FFFFFF;}
	.st1{fill:#DCDCDC;}
	.st2{fill:#C0B2A3;}
	.st3{fill:#4D8BC1;}
	.st4{fill:#DCCCBE;}
	.st5{fill:#E0E0DF;}
	.st6{fill:#39485D;}
	.st7{fill:#B9481E;}
	.st8{fill:#80958B;}
	.st9{fill:#D9A63B;}
	.st10{fill:none;}
	.st11{fill:#434650;}
	.st12{fill:#AECAE1;}
	.st13{fill:#78A2CC;}
	.st14{fill:#E7E7E7;}
	.st15{fill:#CDCDCD;}
	.st16{fill:#1F313F;}
	.st17{fill:#6B8898;}
	.st18{fill:#324E60;}
	.st19{fill:#FFFFFD;}
	.st20{fill:#5F8FAF;}
	.st21{opacity:0.4;fill:#AECAE1;}
	.st22{fill:#D3D3D3;}
	.st23{fill:#EAA639;}
	.st24{fill:#17212D;}
	.st25{fill:#2A3E51;}
	.st26{fill:#775017;}
	.st27{clip-path:url(#SVGID_00000142164357770267087160000001001145846534829954_);}
	.st28{opacity:0.4;fill:#AECAE1;enable-background:new    ;}
	.st29{clip-path:url(#SVGID_00000134238548286648862590000004968610445724980375_);}
	.st30{clip-path:url(#SVGID_00000000915535226428961030000005472740545032447874_);}
</style>
<g>
	<path class="st12" d="M50.6,6.1c0-3.4-2.7-6.1-6.1-6.1H6.1C2.7,0,0,2.7,0,6.1v34h50.6V6.1z"/>
	<path class="st20" d="M6.1,50.6h38.4c3.4,0,6.1-3.5,6.1-7.9v-5.6H0v5.6C0,47.1,2.7,50.6,6.1,50.6z"/>
	<path class="st21" d="M7.1,39.6h36.1c0.2,0,0.4,0.2,0.4,0.4v0c0,0.2-0.2,0.4-0.4,0.4H7.1c-0.2,0-0.4-0.2-0.4-0.4v0
		C6.7,39.8,6.9,39.6,7.1,39.6z"/>
	<path class="st21" d="M33.3,42.4H12c-0.3,0-0.5-0.2-0.5-0.5l0,0c0-0.3,0.2-0.5,0.5-0.5h21.3c0.3,0,0.5,0.2,0.5,0.5l0,0
		C33.8,42.1,33.6,42.4,33.3,42.4z"/>
	<path class="st21" d="M41.6,43.9H17.8c-0.2,0-0.4-0.2-0.4-0.4v0c0-0.2,0.2-0.4,0.4-0.4h23.8c0.2,0,0.4,0.2,0.4,0.4v0
		C42,43.7,41.8,43.9,41.6,43.9z"/>
	<path class="st21" d="M12.1,45.7h20.4c0.3,0,0.5-0.2,0.5-0.5l0,0c0-0.3-0.2-0.5-0.5-0.5H12.1c-0.3,0-0.5,0.2-0.5,0.5l0,0
		C11.6,45.5,11.8,45.7,12.1,45.7z"/>
	<path class="st21" d="M33.5,47.4h-7.9c-0.2,0-0.4-0.2-0.4-0.4l0,0c0-0.2,0.2-0.4,0.4-0.4h7.9c0.2,0,0.4,0.2,0.4,0.4l0,0
		C33.9,47.2,33.7,47.4,33.5,47.4z"/>
</g>
<rect y="24.1" class="st13" width="50.6" height="1.7"/>
<g>
	<rect x="45.9" y="18.7" class="st13" width="0.6" height="5.5"/>
	<path class="st13" d="M45.5,19.8V19c0-0.4,0.3-0.7,0.7-0.7l0,0c0.4,0,0.7,0.3,0.7,0.7v0.8c0,0.4-0.3,0.7-0.7,0.7l0,0
		C45.8,20.5,45.5,20.2,45.5,19.8z"/>
</g>
<g>
	<rect x="30.7" y="18.7" class="st13" width="0.6" height="5.5"/>
	<path class="st13" d="M30.3,19.8V19c0-0.4,0.3-0.7,0.7-0.7l0,0c0.4,0,0.7,0.3,0.7,0.7v0.8c0,0.4-0.3,0.7-0.7,0.7l0,0
		C30.6,20.5,30.3,20.2,30.3,19.8z"/>
</g>
<g>
	<rect x="19.6" y="18.7" class="st13" width="0.6" height="5.5"/>
	<path class="st13" d="M19.2,19.8V19c0-0.4,0.3-0.7,0.7-0.7l0,0c0.4,0,0.7,0.3,0.7,0.7v0.8c0,0.4-0.3,0.7-0.7,0.7l0,0
		C19.5,20.5,19.2,20.2,19.2,19.8z"/>
</g>
<g>
	<rect x="11.3" y="13.7" class="st13" width="0.6" height="5.3"/>
</g>
<g>
	<rect x="39" y="13.7" class="st13" width="0.6" height="5.3"/>
</g>
<g>
	<rect x="2.9" y="18.7" class="st13" width="0.6" height="5.5"/>
	<path class="st13" d="M2.5,19.8V19c0-0.4,0.3-0.7,0.7-0.7h0c0.4,0,0.7,0.3,0.7,0.7v0.8c0,0.4-0.3,0.7-0.7,0.7h0
		C2.8,20.5,2.5,20.2,2.5,19.8z"/>
</g>
<polygon class="st14" points="4.9,31.4 0,29.4 0,25.8 4.9,25.8 "/>
<polygon class="st14" points="45.9,31.4 50.6,29.4 50.6,25.8 45.9,25.8 "/>
<path class="st13" d="M25.4,25.8L25.4,25.8h-7.1v2.3c2.8-1.5,7.1-1.5,7.1-1.5s4.4-0.1,7.2,1.5v-2.3H25.4z"/>
<g>
	<g>
		<path class="st14" d="M17,37.1H6.2v-13c0-0.4,0.3-0.8,0.8-0.8h9.3c0.4,0,0.8,0.3,0.8,0.8V37.1z"/>
		<rect x="8" y="26.8" class="st22" width="3" height="1.1"/>
		<rect x="10.9" y="34.3" class="st22" width="3" height="1.1"/>
		<rect x="9.3" y="33" class="st22" width="3" height="1.1"/>
		<rect x="12.6" y="33" class="st22" width="3" height="1.1"/>
		<rect x="9.5" y="25.5" class="st22" width="3" height="1.1"/>
	</g>
	<g>
		<path class="st14" d="M44.7,37.1H33.8v-13c0-0.4,0.3-0.8,0.8-0.8h9.3c0.4,0,0.8,0.3,0.8,0.8V37.1z"/>
		<rect x="35.7" y="26.8" class="st22" width="3" height="1.1"/>
		<rect x="38.5" y="34.3" class="st22" width="3" height="1.1"/>
		<rect x="37" y="33" class="st22" width="3" height="1.1"/>
		<rect x="40.2" y="33" class="st22" width="3" height="1.1"/>
		<rect x="37.2" y="25.5" class="st22" width="3" height="1.1"/>
	</g>
	<rect x="4.9" y="24.1" class="st22" width="1.3" height="13"/>
	
		<rect x="17" y="24.1" transform="matrix(-1 -1.224647e-16 1.224647e-16 -1 35.3351 61.1602)" class="st22" width="1.3" height="13"/>
	
		<rect x="32.6" y="24.1" transform="matrix(-1 -1.224647e-16 1.224647e-16 -1 66.3714 61.1602)" class="st22" width="1.3" height="13"/>
	
		<rect x="44.7" y="24.1" transform="matrix(-1 -1.224647e-16 1.224647e-16 -1 90.5937 61.1602)" class="st22" width="1.3" height="13"/>
	<g>
		<rect x="7.7" y="20.3" class="st14" width="7.7" height="3"/>
		<path class="st22" d="M15.4,20.3H7.7v0c0-0.8,0.7-1.5,1.5-1.5h4.7C14.8,18.8,15.4,19.5,15.4,20.3L15.4,20.3z"/>
		<rect x="7.7" y="22.9" class="st22" width="7.7" height="0.4"/>
		<path class="st22" d="M10.2,23H8.5v-1.7c0-0.4,0.3-0.7,0.7-0.7h0.3c0.4,0,0.7,0.3,0.7,0.7V23z"/>
		<path class="st22" d="M12.4,23h-1.6v-1.7c0-0.4,0.3-0.7,0.7-0.7h0.3c0.4,0,0.7,0.3,0.7,0.7V23z"/>
		<path class="st22" d="M14.6,23H13v-1.7c0-0.4,0.3-0.7,0.7-0.7h0.3c0.4,0,0.7,0.3,0.7,0.7V23z"/>
	</g>
	<g>
		<rect x="35.4" y="20.3" class="st14" width="7.7" height="3"/>
		<path class="st22" d="M43.1,20.3h-7.7v0c0-0.8,0.7-1.5,1.5-1.5h4.7C42.4,18.8,43.1,19.5,43.1,20.3L43.1,20.3z"/>
		<rect x="35.4" y="22.9" class="st22" width="7.7" height="0.4"/>
		<path class="st22" d="M37.8,23h-1.6v-1.7c0-0.4,0.3-0.7,0.7-0.7h0.3c0.4,0,0.7,0.3,0.7,0.7V23z"/>
		<path class="st22" d="M40.1,23h-1.6v-1.7c0-0.4,0.3-0.7,0.7-0.7h0.3c0.4,0,0.7,0.3,0.7,0.7V23z"/>
		<path class="st22" d="M42.3,23h-1.6v-1.7c0-0.4,0.3-0.7,0.7-0.7h0.3c0.4,0,0.7,0.3,0.7,0.7V23z"/>
	</g>
</g>
</svg>
